%
M48
M72
T01C0.02400
T02C0.03200
T03C0.03346
T04C0.05200
T05C0.11900
T06C0.15748
%
T01
X170698Y179220
X200225Y178827
T02
X88411Y52754
X102938Y52360
X117466Y52360
X131600Y52754
X131600Y82754
X117466Y82360
X102938Y82360
X88411Y82754
X101403Y113620
X121403Y113620
X121403Y133620
X101403Y133620
X101403Y153620
X121403Y153620
X121403Y173620
X121922Y188640
X104678Y188640
X89678Y188640
X101403Y173620
X138418Y188640
X162899Y178620
X177899Y178620
X192899Y178620
X207899Y178620
X212899Y168620
X212899Y153620
X212899Y138620
X212899Y123620
X192899Y113620
X172899Y113620
X175899Y83620
X189899Y83620
X242899Y123620
X255899Y123620
X269899Y123620
X287899Y113620
X269899Y88620
X255899Y88620
X262269Y57557
X287269Y48620
X287269Y38620
X262269Y27557
X242899Y138620
X242899Y153620
X255899Y158620
X269899Y158620
X287899Y143620
X242899Y168620
X255899Y193620
X269899Y193620
X267899Y221620
X267899Y235620
X232899Y235620
X232899Y221620
X207899Y208620
X197899Y221620
X192899Y208620
X177899Y208620
X162899Y208620
X162899Y221620
X162899Y235620
X138418Y218640
X121922Y218640
X104678Y218640
X89678Y218640
X188962Y253620
X197899Y235620
X218962Y253620
T03
X237627Y30008
X222666Y30008
T04
X67899Y83620
X67899Y98620
X67899Y113620
X67899Y128620
X67899Y143620
X67899Y158620
X67899Y173620
X67899Y188620
X67899Y203620
X67899Y218620
X67899Y233620
X47899Y226120
X47899Y211120
X47899Y196120
X47899Y181120
X47899Y166120
X47899Y151120
X47899Y136120
X47899Y121120
X47899Y106120
X47899Y91120
X307899Y83620
X307899Y98620
X307899Y113620
X307899Y128620
X307899Y143620
X307899Y158620
X307899Y173620
X307899Y188620
X307899Y203620
X307899Y218620
X307899Y233620
X327899Y226120
X327899Y211120
X327899Y196120
X327899Y181120
X327899Y166120
X327899Y151120
X327899Y136120
X327899Y121120
X327899Y106120
X327899Y91120
X275399Y293620
X260399Y293620
X245399Y293620
X230399Y293620
X215399Y293620
X200399Y293620
X185399Y293620
X170399Y293620
X155399Y293620
X140399Y293620
X147899Y273620
X162899Y273620
X177899Y273620
X192899Y273620
X207899Y273620
X222899Y273620
X237899Y273620
X252899Y273620
X267899Y273620
X282899Y273620
X132899Y273620
T05
X34899Y262620
X48899Y262620
X103899Y292620
X103899Y306620
X311899Y292620
X311899Y306620
X326899Y262620
X340899Y262620
X326899Y54620
X340899Y54620
X48899Y54620
X34899Y54620
T06
X19277Y29053
X357859Y29053
X357859Y320392
X19277Y320392
M30
